<svg xmlns="http://www.w3.org/2000/svg" viewBox="0 0 88 88"><defs><style>.c{fill:#ffaf21;}</style></defs><rect class="c" width="88" height="88"></rect><path d="M77,44A33,33,0,1,0,44,77,33,33,0,0,0,77,44m-1.614,0A31.386,31.386,0,1,1,44,12.612,31.387,31.387,0,0,1,75.386,44M67.628,45.78V34.546A1.891,1.891,0,0,1,69,32.414l1.56-.529V27.69l-4,1.354a3.96,3.96,0,0,0-2.98,4.244v29.44l4.045-1.372V51.5a1.913,1.913,0,0,1,1.584-2.046l1.369-.462V44.78ZM60.09,35.437l2.12-.716v-4.2l-4.563,1.543a3.962,3.962,0,0,0-2.98,4.243V65.755l4.047-1.374V54.528A1.919,1.919,0,0,1,60.3,52.48l1.368-.463V47.805l-2.953,1V37.57a1.894,1.894,0,0,1,1.376-2.133M47.8,56.706l4.7-1.588V33.807l-2.644.905a1.967,1.967,0,0,0-1.4,2.093V52.273l-1.493.5a.919.919,0,0,1-.908-.145,1.8,1.8,0,0,1-.452-1.406V36.138l-2.635.891a1.953,1.953,0,0,0-1.41,2.021v13A5.236,5.236,0,0,0,43.1,55.879a5.012,5.012,0,0,0,4.7.827m-7.875-5.931V45.748c0-3.287-1.357-5.274-4.265-7.131l-.908-.593.956-1.574c1.691-2.778,2.67-6.29.341-9.5-1.707-2.358-5.105-2.605-8.326-1.513L16.677,29.17s4.932.285,4.932,4.468V65.564l11.6-3.923c6.013-2.032,6.716-5.44,6.716-10.866M32.148,34.7,25.856,45.029V30.311l3.675-1.249c1.507-.505,2.64-.2,3.284.68,1.049,1.426.348,3.292-.667,4.956m3.511,16.888c0,2.984-.692,5.183-3.568,6.146l-6.235,2.106v-7.2L32.52,41.684l.815.523a4.678,4.678,0,0,1,2.324,4.4Zm33.128,17.2a2.37,2.37,0,0,0-.726,1.744,2.409,2.409,0,0,0,.722,1.756,2.478,2.478,0,0,0,4.229-1.756,2.344,2.344,0,0,0-.726-1.744,2.454,2.454,0,0,0-3.5,0M68.4,70.533a2.136,2.136,0,1,1,.62,1.518,2.082,2.082,0,0,1-.62-1.518m2.082-1.372H69.53v2.722h.486V70.814h.374a1.047,1.047,0,0,1,.536.09.66.66,0,0,1,.254.619v.214l.009.09a.057.057,0,0,1,.007.033l.011.023h.443l-.016-.034a.506.506,0,0,1-.023-.135c0-.078,0-.148,0-.2v-.2a.783.783,0,0,0-.152-.429.69.69,0,0,0-.468-.26,1.2,1.2,0,0,0,.4-.133.6.6,0,0,0,.268-.541.675.675,0,0,0-.42-.685,1.994,1.994,0,0,0-.744-.1m-.066.337a1.113,1.113,0,0,1,.579.1.41.41,0,0,1,.181.393.427.427,0,0,1-.277.427,1.442,1.442,0,0,1-.463.058h-.424V69.5Z" transform="translate(0 0)"></path></svg>
